<svg xmlns="http://www.w3.org/2000/svg" viewBox="0 0 275 275"><title>behance_icon</title><g id="Layer_2" data-name="Layer 2"><g id="Layer_1-2" data-name="Layer 1"><path d="M115.72,114.55c0-10.51-7.17-10.51-7.17-10.51H79.1v22.6h27.64c4.75,0,9-1.54,9-12.09Z"/><path d="M184,126.64c-15.6,0-17.79,15.58-17.79,15.58h33.24s.21-15.58-15.45-15.58Z"/><path d="M108.55,142.22H79.1v27.07h28c4.19-.11,12.17-1.33,12.17-13.17,0-14-10.68-13.9-10.68-13.9Z"/><path d="M137.48,0C61.68,0,0,61.69,0,137.49S61.68,275,137.48,275,275,213.32,275,137.49,213.31,0,137.48,0Zm24.34,92h41.76v12.46H161.82ZM140.7,157.39c0,30.89-32.15,29.88-32.15,29.88H55.9V86.05h52.65c16,0,28.66,8.84,28.66,27s-15.44,19.25-15.44,19.25c20.34,0,18.93,25.12,18.93,25.12Zm78.13-1.65H166.37c0,18.79,17.81,17.6,17.81,17.6,16.83,0,16.23-10.87,16.23-10.87h17.82c0,28.89-34.63,26.91-34.63,26.91-41.54,0-38.9-38.7-38.9-38.7s0-38.88,38.9-38.88c41,0,35.23,43.94,35.23,43.94Z"/></g></g></svg>