<svg xmlns="http://www.w3.org/2000/svg" viewBox="0 0 165.63 165.63"><defs><style>.cls-1{fill:#212121;}</style></defs><title>logo</title><g id="Layer_2" data-name="Layer 2"><g id="Layer_1-2" data-name="Layer 1"><polygon class="cls-1" points="105.8 103.63 73.2 49.63 65 49.63 104.3 116.13 113.7 116.13 113.7 73.42 101.2 73.42 101.2 81.22 105.8 81.22 105.8 103.63"/><polygon class="cls-1" points="52.9 49.63 52.9 108.22 52.9 116.13 61 116.13 65.4 116.13 65.4 108.22 61 108.22 61 62.42 94.1 116.13 102.5 116.13 62.7 49.63 52.9 49.63"/><path class="cls-1" d="M165.1,81.62,84.1.52a1.77,1.77,0,0,0-2.5,0L.5,81.62A1.89,1.89,0,0,0,0,82.83,1.8,1.8,0,0,0,.5,84l81.1,81.11a1.69,1.69,0,0,0,2.4,0L165.1,84A1.64,1.64,0,0,0,165.1,81.62Zm-82.3,79.8L4.2,82.83,82.8,4.22l78.6,78.6Z"/><path class="cls-1" d="M81.6,7.12,7.1,81.62a1.89,1.89,0,0,0-.5,1.2A1.85,1.85,0,0,0,7.1,84l74.5,74.5a1.69,1.69,0,0,0,2.4,0L158.5,84a1.75,1.75,0,0,0,0-2.5L84.1,7.12A1.77,1.77,0,0,0,81.6,7.12Zm73.2,75.71-72,72-72-72,72-72Z"/></g></g></svg>